# xmcd
#
# Track frame offsets:
#	150
#	15336
#	38586
#	66709
#
# Disc length: 1713 seconds
#
# Revision: 1
# Processed by: cddbd v1.5.2PL0 Copyright (c) Steve Scherf et al.
# Submitted via: audiograbber 1.83.01
#
DISCID=2b06af04
DTITLE=Mighty 44 - What's Your Number [CDM/R)
DYEAR=2006
DGENRE=Electronic
TTITLE0=What's Your Number
TTITLE1=What's Your Number (The Blush Last Night Remix)
TTITLE2=What's Your Number (Blue Room Edit)
TTITLE3=Data Track
EXTD=TR.
EXTT0=
EXTT1=
EXTT2=
EXTT3=
PLAYORDER=
